<svg width="250" height="250" viewBox="0 0 250 250" fill="none" xmlns="http://www.w3.org/2000/svg">
<g clip-path="url(#clip0_2411_6302)">
<path d="M180.792 59C178.48 59 175.875 59.0476 172.968 59.1014C166.066 59.2298 157.48 59.3892 147.062 59H109.284C109.123 59 108.977 59.0124 108.78 59.0332C99.2901 59.2858 97.2983 64.998 97.2983 69.7477V75.9051C97.2983 80.8907 99.4315 86.8328 109.59 86.8328H147.581C174.381 86.8328 181.619 86.7977 181.619 109.697H82.7691C64.7874 109.697 53.0641 113.114 45.9919 119.889C45.9359 119.942 45.8746 119.992 45.8192 120.046C39.5967 126.118 37.0453 134.847 37.0436 146.198L37.0028 151.532C37.0028 151.532 37.0028 151.533 37.0028 151.533L37 151.921C37 169.505 46.5145 190.448 91.846 190.448H155.376C192.949 190.448 212 176.878 212 150.116V84.7128C212 71.4951 196.833 59 180.792 59ZM177.669 158.313C175.376 160.335 169.683 162.748 155.587 162.748H91.7196C86.7085 162.748 82.6836 162.706 79.4883 162.405C78.9249 162.352 78.3879 162.29 77.8756 162.22C76.5996 162.044 75.4808 161.809 74.5023 161.5C74.0065 161.343 73.5475 161.166 73.1232 160.967C72.9408 160.882 72.7648 160.792 72.5951 160.699C71.9844 160.362 71.4503 159.973 70.9969 159.517C69.8231 158.335 69.156 156.723 68.8882 154.526C68.7937 153.752 68.7472 152.909 68.7472 151.983V147.184C68.7472 145.574 68.7521 143.995 69.499 142.6C71.002 139.795 75.5317 137.741 89.1638 137.71H89.1668C89.2712 137.71 89.368 137.708 89.4732 137.708H181.718L181.736 143.451C181.736 151.004 180.376 155.996 177.669 158.313Z" fill="#101828"/>
</g>
<defs>
<clipPath id="clip0_2411_6302">
<rect width="175" height="131.448" fill="white" transform="translate(37 59)"/>
</clipPath>
</defs>
</svg>
